<svg width="200" height="53" viewBox="0 0 200 53" fill="none" xmlns="http://www.w3.org/2000/svg">
<path fill-rule="evenodd" clip-rule="evenodd" d="M93.9723 4.60052C93.9723 3.71188 94.5749 2.37845 96.6852 2.37845C98.1369 2.37845 99.5072 3.10978 100.329 4.5743L102.384 3.00677C100.986 0.967299 98.931 0 96.6303 0C93.5335 0 91.1504 1.96082 91.1504 4.86178C91.1504 7.74999 93.739 8.82832 96.1118 9.81674C98.1194 10.653 99.9724 11.4249 99.9724 13.1742C99.9724 14.7951 98.4383 15.9188 96.7942 15.9188C94.0272 15.9188 92.9034 14.0628 92.3007 12.4157L89.945 13.8269C91.2603 16.5199 93.1232 18.2448 96.9591 18.2448C100.027 18.2448 102.794 16.0489 102.794 12.8858C102.794 9.64548 99.8881 8.42014 97.4118 7.37603C95.5736 6.601 93.9723 5.92583 93.9723 4.60052ZM35.6464 18.2448H33.1595V0.414654H35.6464V18.2448ZM67.5438 44.5993C67.5438 44.0735 67.9132 43.2857 69.2061 43.2857C70.0967 43.2857 70.9356 43.7185 71.4391 44.5831L72.6991 43.6568C71.8426 42.4524 70.5837 41.8801 69.1731 41.8801C67.2755 41.8801 65.8143 43.0389 65.8143 44.753C65.8143 46.46 67.4011 47.0972 68.8555 47.6812C70.0858 48.1752 71.2214 48.6312 71.2214 49.6647C71.2214 50.6224 70.2814 51.2867 69.2732 51.2867C67.5778 51.2867 66.8895 50.1896 66.5201 49.2167L65.0755 50.051C65.8814 51.6417 67.0237 52.6611 69.3743 52.6611C71.2544 52.6611 72.9509 51.3636 72.9509 49.4948C72.9509 47.5799 71.1693 46.8557 69.6515 46.2388C68.525 45.7809 67.5438 45.382 67.5438 44.5993ZM126.421 52.2464V41.8801H124.86V50.0406L118.033 41.8801H116.473V52.2464H118.033V44.0858L124.86 52.2464H126.421ZM90.3958 41.8801H92.5867L87.1255 46.3845L93.2611 52.2464H91.0536L85.7602 46.9865V52.2464H84.1422V41.8801H85.7602V45.8907L90.3958 41.8801ZM102.795 52.2464H104.453V41.8801H102.795V52.2464ZM57.6146 15.9369H48.7132V0.414654H46.0088V18.2448H57.6146V15.9369ZM68.5989 15.9359H71.7427C76.6247 15.9359 79.2065 12.9379 79.2065 9.32972C79.2065 5.45629 75.8677 2.7235 71.9387 2.7235H68.5989V15.9359ZM65.9046 0.414654H71.8825C77.3547 0.414654 82.0698 3.99627 82.0698 9.32972C82.0698 14.5567 77.607 18.2448 72.0222 18.2448H65.9046V0.414654ZM129.144 18.2448V4.18257L122.483 12.2488L115.822 4.18257V18.2448H113.157V0.414654H115.822L122.483 8.66624L129.144 0.414654H131.809V18.2448H129.144ZM142.586 18.2448H145.073V0.414654H142.586V18.2448ZM154.192 0.414654H168.699V2.7235H162.78V18.2448H160.111V2.7235H154.192V0.414654ZM191.704 7.52655H180.926V0.414654H178.233V18.2448H180.926V9.8335H191.704V18.2448H194.398V0.414654H191.704V7.52655ZM17.431 18.2448H16.828L12.6783 9.0022L8.6079 18.2448H8.00488L0 0.414654H2.67689L8.26374 12.8822L11.3284 5.99623L8.82213 0.414654H11.5L12.6604 3.00447L13.8129 0.414654H16.461L14.0013 5.99812L17.0869 12.8822L22.636 0.414654H25.2841L17.431 18.2448Z" fill="black"/>
</svg>
